<?xml version="1.0" encoding="utf-8"?>
<!-- Generator: Adobe Illustrator 27.5.0, SVG Export Plug-In . SVG Version: 6.00 Build 0)  -->
<svg version="1.1" xmlns="http://www.w3.org/2000/svg" xmlns:xlink="http://www.w3.org/1999/xlink" x="0px" y="0px"
	 viewBox="0 0 500 500" style="enable-background:new 0 0 500 500;" xml:space="preserve">
<g id="BACKGROUND">
	<rect x="-0.027" y="-0.027" style="fill:#542ACE;" width="500.027" height="500.027"/>
</g>
<g id="OBJECTS">

	<g>
		<g>
			<path style="fill:#FD64FA;" d="M377.84,127.089c1.065,1.065,1.631,2.555,1.741,4.388c0.039,0.643,0.022,1.327-0.051,2.05
				c-0.153,1.537-0.55,3.245-1.176,5.09c-0.03,0.091-0.061,0.182-0.093,0.273c-2.978,8.549-10.752,19.971-21.618,30.837
				c-10.866,10.866-22.289,18.64-30.837,21.618c-0.092,0.031-0.183,0.063-0.273,0.093c-1.846,0.625-3.553,1.023-5.089,1.175
				c-0.723,0.073-1.407,0.09-2.051,0.052c-1.832-0.111-3.322-0.677-4.387-1.742c-3.064-3.064-2.002-9.653,2.18-17.744
				c-3.148,6.301-3.935,11.261-1.646,13.551c0.988,0.988,2.474,1.403,4.35,1.302c0.17-0.008,0.341-0.023,0.517-0.039
				c7.55-0.749,20.834-9.181,33.577-21.924c12.742-12.742,21.176-26.027,21.925-33.578c0.016-0.176,0.031-0.348,0.038-0.516
				c0.102-1.876-0.313-3.363-1.301-4.351c-2.29-2.289-7.251-1.501-13.553,1.648C368.185,125.089,374.776,124.025,377.84,127.089z"/>
			<polygon style="fill:#FF64FC;" points="241.609,144.806 241.609,149.227 241.609,157.589 241.609,162.01 241.609,174.794 
				246.031,174.794 246.031,162.01 271.597,162.01 271.597,157.589 246.031,157.589 246.031,149.227 271.597,149.227 
				271.597,144.806 246.031,144.806 			"/>
			<polygon style="fill:#FF64FC;" points="325.831,144.806 313.047,144.806 313.047,149.227 325.831,149.227 325.831,174.794 
				330.252,174.794 330.252,149.227 343.035,149.227 343.035,144.806 330.252,144.806 			"/>
			<polygon style="fill:#FF64FC;" points="450.235,149.227 450.235,144.806 424.669,144.806 420.247,144.806 420.247,149.227 
				420.247,157.589 420.247,162.01 420.247,170.372 420.247,174.794 424.669,174.794 450.235,174.794 450.235,170.372 
				424.669,170.372 424.669,162.01 450.235,162.01 450.235,157.589 424.669,157.589 424.669,149.227 			"/>
			<path style="fill:#FF64FC;" d="M410.044,144.806h-21.138h-4.421v4.421v8.362v4.421v12.783h4.421V162.01h17.231l3.907,12.783
				h4.421l-3.907-12.783h3.907h0.008v-4.421h-0.008v-8.362h0.008v-4.421h-0.008H410.044z M410.044,157.589h-0.837h-4.421h-15.88
				v-8.362h21.138V157.589z"/>
			<polygon style="fill:#FF64FC;" points="302.938,170.372 281.793,170.372 281.793,144.806 277.371,144.806 277.371,170.372 
				277.371,174.794 281.793,174.794 302.938,174.794 307.359,174.794 307.359,170.372 307.359,144.806 302.938,144.806 			"/>
			<path style="fill:#FF64FC;" d="M348.724,144.806h4.422v16.525c-0.778,0.823-1.589,1.653-2.418,2.482
				c-0.67,0.67-1.34,1.327-2.004,1.959V144.806z"/>
			<path style="fill:#FF64FC;" d="M378.713,145.852v28.942h-22.714c0.976-0.919,1.946-1.857,2.903-2.814
				c0.53-0.53,1.059-1.066,1.576-1.608h13.814v-16.998C376.001,150.797,377.487,148.27,378.713,145.852z"/>
		</g>
	</g>
</g>

<g id="TEXTS">
	<g>
		<text transform="matrix(1 0 0 1 319.959 139.4258)" style="fill:#FD64FA; font-family:'Roboto-Bold'; font-size:10.5287px;">2065</text>
	</g>
</g>
</svg>
