<?xml version="1.0" encoding="UTF-8" standalone="no"?>
<!-- Generator: Adobe Illustrator 27.5.0, SVG Export Plug-In . SVG Version: 6.00 Build 0)  -->

<svg
   version="1.1"
   x="0px"
   y="0px"
   viewBox="0 0 300 96.857689"
   xml:space="preserve"
   id="future-svg"
   width="300"
   height="96.857689"
   xmlns="http://www.w3.org/2000/svg"
   xmlns:svg="http://www.w3.org/2000/svg"><defs
   id="defs7" />

<g
   id="OBJECTS"
   transform="matrix(1.4379799,0,0,1.4379799,-347.42889,-180.21896)">

	<g
   id="g6">
		<g
   id="g5">
			<path
   style="fill:#dc143c"
   d="m 377.84,127.089 c 1.065,1.065 1.631,2.555 1.741,4.388 0.039,0.643 0.022,1.327 -0.051,2.05 -0.153,1.537 -0.55,3.245 -1.176,5.09 -0.03,0.091 -0.061,0.182 -0.093,0.273 -2.978,8.549 -10.752,19.971 -21.618,30.837 -10.866,10.866 -22.289,18.64 -30.837,21.618 -0.092,0.031 -0.183,0.063 -0.273,0.093 -1.846,0.625 -3.553,1.023 -5.089,1.175 -0.723,0.073 -1.407,0.09 -2.051,0.052 -1.832,-0.111 -3.322,-0.677 -4.387,-1.742 -3.064,-3.064 -2.002,-9.653 2.18,-17.744 -3.148,6.301 -3.935,11.261 -1.646,13.551 0.988,0.988 2.474,1.403 4.35,1.302 0.17,-0.008 0.341,-0.023 0.517,-0.039 7.55,-0.749 20.834,-9.181 33.577,-21.924 12.742,-12.742 21.176,-26.027 21.925,-33.578 0.016,-0.176 0.031,-0.348 0.038,-0.516 0.102,-1.876 -0.313,-3.363 -1.301,-4.351 -2.29,-2.289 -7.251,-1.501 -13.553,1.648 8.092,-4.183 14.683,-5.247 17.747,-2.183 z"
   id="path1" />
			<polygon
   points="246.031,174.794 246.031,162.01 271.597,162.01 271.597,157.589 246.031,157.589 246.031,149.227 271.597,149.227 271.597,144.806 246.031,144.806 241.609,144.806 241.609,149.227 241.609,157.589 241.609,162.01 241.609,174.794 "
   id="polygon1" />
			<polygon
   points="325.831,149.227 325.831,174.794 330.252,174.794 330.252,149.227 343.035,149.227 343.035,144.806 330.252,144.806 325.831,144.806 313.047,144.806 313.047,149.227 "
   id="polygon2" />
			<polygon
   points="450.235,157.589 424.669,157.589 424.669,149.227 450.235,149.227 450.235,144.806 424.669,144.806 420.247,144.806 420.247,149.227 420.247,157.589 420.247,162.01 420.247,170.372 420.247,174.794 424.669,174.794 450.235,174.794 450.235,170.372 424.669,170.372 424.669,162.01 450.235,162.01 "
   id="polygon3" />
			<path
   d="m 410.044,144.806 h -21.138 -4.421 v 4.421 8.362 4.421 12.783 h 4.421 V 162.01 h 17.231 l 3.907,12.783 h 4.421 l -3.907,-12.783 h 3.907 0.008 v -4.421 h -0.008 v -8.362 h 0.008 v -4.421 h -0.008 z m 0,12.783 h -0.837 -4.421 -15.88 v -8.362 h 21.138 z"
   id="path3" />
			<polygon
   points="307.359,170.372 307.359,144.806 302.938,144.806 302.938,170.372 281.793,170.372 281.793,144.806 277.371,144.806 277.371,170.372 277.371,174.794 281.793,174.794 302.938,174.794 307.359,174.794 "
   id="polygon4" />
			<path
   d="m 348.724,144.806 h 4.422 v 16.525 c -0.778,0.823 -1.589,1.653 -2.418,2.482 -0.67,0.67 -1.34,1.327 -2.004,1.959 z"
   id="path4" />
			<path
   d="m 378.713,145.852 v 28.942 h -22.714 c 0.976,-0.919 1.946,-1.857 2.903,-2.814 0.53,-0.53 1.059,-1.066 1.576,-1.608 h 13.814 v -16.998 c 1.709,-2.577 3.195,-5.104 4.421,-7.522 z"
   id="path5" />
		</g>
	</g>
</g>

<g
   id="TEXTS"
   transform="matrix(1.4379799,0,0,1.4379799,-347.42889,-180.21896)">
	<g
   id="g7">
		<text
   transform="translate(319.959,139.4258)"
   style="font-size:10.5287px;font-family:Roboto-Bold"
   id="text6">2065</text>
	</g>
</g>
</svg>
