<?xml version="1.0" encoding="UTF-8" standalone="no"?>
<!-- Generator: Adobe Illustrator 27.5.0, SVG Export Plug-In . SVG Version: 6.00 Build 0)  -->

<svg
   version="1.1"
   x="0"
   y="0"
   viewBox="0 0 200 95.443893"
   id="neo-svg"
   width="200"
   height="95.443893"
   xmlns="http://www.w3.org/2000/svg"
   xmlns:svg="http://www.w3.org/2000/svg">
  <defs
     id="defs5" />
  <g
     id="OBJECTS"
     transform="matrix(1.0823389,0,0,1.0823389,-271.51662,-296.13225)">
    <polygon
       points="310.527,332.622 306.348,309.873 290.203,309.873 283.496,328.008 267.006,328.008 274.012,309.873 257.867,309.873 250.861,328.008 266.978,328.008 259.973,346.142 276.788,346.142 271.002,361.787 287.147,361.787 295.561,339.038 299.74,361.787 315.885,361.787 335.086,309.873 318.941,309.873 "
       id="polygon1" />
    <polygon
       points="290.156,309.873 297.162,291.739 281.017,291.739 274.012,309.873 "
       id="polygon2" />
    <polygon
       points="313.307,291.739 320.313,273.604 304.168,273.604 297.162,291.739 "
       id="polygon3" />
    <polygon
       points="338.518,291.739 342.5,281.43 333.322,281.43 329.34,291.739 "
       id="polygon4" />
    <path
       d="m 435.646,309.873 h -16.145 -12.593 -16.145 l -13.765,37.217 h -0.039 l -5.397,14.697 h 16.145 12.593 16.145 L 430.21,324.57 h 0.039 z m -29.91,37.217 h -12.593 l 8.329,-22.52 h 12.593 z"
       id="path4" />
    <polygon
       points="385.366,309.873 356.628,309.873 340.483,309.873 326.718,347.09 326.679,347.09 321.282,361.787 337.427,361.787 366.165,361.787 371.562,347.09 342.863,347.09 344.309,343.179 359.466,343.179 364.863,328.482 349.745,328.482 351.192,324.57 379.969,324.57 "
       id="polygon5" />
  </g>
  <g
     id="TEXT"
     transform="matrix(1.0823389,0,0,1.0823389,-271.51662,-296.13225)">
    <text
       transform="matrix(0.8896,0,-0.4566,0.8896,302.9429,303.8903)"
       style="font-size:8.9477px;font-family:Roboto-Black"
       id="text5">SHIBUYA TECH</text>
  </g>
</svg>
