<?xml version="1.0" encoding="utf-8"?>
<!-- Generator: Adobe Illustrator 27.5.0, SVG Export Plug-In . SVG Version: 6.00 Build 0)  -->
<svg version="1.1" xmlns="http://www.w3.org/2000/svg" xmlns:xlink="http://www.w3.org/1999/xlink" x="0" y="0"
	viewBox="0 0 500 500" id="svg-neo">



	<style>
		polygon, path, text {
			<!-- fill: #FF64FC; -->
			fill: red;
		}
	</style>


	<g id="OBJECTS" transform="translate(-90, -80) scale(1)">
		<polygon points="318.941,309.873 310.527,332.622 306.348,309.873 290.203,309.873 283.496,328.008 267.006,328.008 274.012,309.873 257.867,309.873 250.861,328.008 266.978,328.008 259.973,346.142 276.788,346.142 271.002,361.787 287.147,361.787 295.561,339.038 299.74,361.787 315.885,361.787 335.086,309.873"/>
		<polygon points="297.162,291.739 281.017,291.739 274.012,309.873 290.156,309.873"/>
		<polygon points="320.313,273.604 304.168,273.604 297.162,291.739 313.307,291.739"/>
		<polygon points="342.5,281.43 333.322,281.43 329.34,291.739 338.518,291.739"/>
		<path d="M435.646,309.873h-16.145h-12.593h-16.145l-13.765,37.217h-0.039l-5.397,14.697h16.145H400.3 h16.145l13.765-37.217h0.039L435.646,309.873z M405.736,347.09h-12.593l8.329-22.52h12.593L405.736,347.09z"/>
		<polygon points="342.863,347.09 344.309,343.179 359.466,343.179 364.863,328.482 349.745,328.482 351.192,324.57 379.969,324.57 385.366,309.873 356.628,309.873 340.483,309.873 326.718,347.09 326.679,347.09 321.282,361.787 337.427,361.787 366.165,361.787 371.562,347.09"/>
	</g>


	<g id="TEXT" transform="translate(-90, -80) scale(1)">
		<text transform="matrix(0.8896 0 -0.4566 0.8896 302.9429 303.8903)" style="font-family:'Roboto-Black'; font-size:8.9477px;">SHIBUYA TECH</text>
	</g>
</svg>
