<?xml version="1.0" encoding="UTF-8" standalone="no"?>
<!-- Generator: Adobe Illustrator 27.5.0, SVG Export Plug-In . SVG Version: 6.00 Build 0)  -->

<svg
   version="1.1"
   x="0px"
   y="0px"
   viewBox="0 0 300 177.80636"
   xml:space="preserve"
   id="svg-tears"
   width="300"
   height="177.80637"
   xmlns="http://www.w3.org/2000/svg"
   xmlns:svg="http://www.w3.org/2000/svg"><defs
   id="defs19" />

<g
   id="OBJECTS"
   transform="matrix(1.4026754,0,0,1.4026754,-50.691286,-364.11727)">
	<g
   id="g18">
		<g
   id="g17">
			<g
   id="g9">
				<g
   id="g4">
					<path
   style="fill:#ff64fc"
   d="m 147.28,330.315 c -0.14,-0.141 -0.334,-0.228 -0.549,-0.228 h -4.985 c -0.001,0 -0.001,0 -0.002,0 -0.001,0 -0.001,0 -0.002,0 h -4.985 c -0.215,0 -0.409,0.087 -0.549,0.228 -0.141,0.14 -0.228,0.335 -0.228,0.549 v 4.986 c 0,0.004 0.002,0.007 0.002,0.01 0,0.004 -0.002,0.007 -0.002,0.01 v 4.986 c 0,0.428 0.347,0.776 0.775,0.776 0.428,0 0.776,-0.347 0.776,-0.776 v -4.212 h 4.212 c 0.001,0 0.002,-0.001 0.002,-0.001 0.001,0 0.001,0.001 0.002,0.001 h 4.212 v 4.212 c 0,0.428 0.347,0.776 0.775,0.776 0.428,0 0.775,-0.347 0.775,-0.776 v -4.986 c 0,-0.004 -0.002,-0.007 -0.002,-0.01 0,-0.004 0.002,-0.007 0.002,-0.01 v -4.986 c 0,-0.215 -0.088,-0.409 -0.229,-0.549 z m -5.534,4.778 c -0.001,0 -0.001,10e-4 -0.002,10e-4 -0.001,0 -0.001,-10e-4 -0.002,-10e-4 h -4.212 v -3.456 h 4.212 c 0.001,0 0.002,0 0.002,0 0.001,0 0.001,0 0.002,0 h 4.212 v 3.456 z"
   id="path1" />
					<path
   style="fill:#ff64fc"
   d="m 128.776,331.628 c 10e-4,0 10e-4,0 0.002,0 0.001,0 0.001,0 0.002,0 h 4.986 c 0.428,0 0.775,-0.347 0.775,-0.776 0,-0.428 -0.347,-0.775 -0.775,-0.775 h -4.986 c -0.001,0 -0.001,0 -0.002,0 -0.001,0 -0.001,0 -0.002,0 h -4.986 c -0.215,0 -0.409,0.087 -0.549,0.228 -0.141,0.14 -0.228,0.334 -0.228,0.549 v 4.985 c 0,0.004 0.002,0.007 0.002,0.01 0,0.004 -0.002,0.007 -0.002,0.011 v 4.985 c 0,0.215 0.087,0.409 0.228,0.549 0.14,0.141 0.334,0.228 0.549,0.228 h 4.986 c 10e-4,0 10e-4,0 0.002,0 0.001,0 0.001,0 0.002,0 h 4.986 c 0.428,0 0.775,-0.347 0.775,-0.775 0,-0.428 -0.347,-0.776 -0.775,-0.776 h -4.986 c -0.001,0 -0.001,0 -0.002,0 -0.001,0 -0.001,0 -0.002,0 h -4.212 v -3.439 h 4.212 c 10e-4,0 10e-4,0 0.002,0 0.001,0 0.001,0 0.002,0 h 4.986 c 0.428,0 0.775,-0.347 0.775,-0.776 0,-0.428 -0.347,-0.775 -0.775,-0.775 h -4.986 c -0.001,0 -0.001,0 -0.002,0 -0.001,0 -0.001,0 -0.002,0 h -4.212 v -3.456 h 4.212 z"
   id="path2" />
					<path
   style="fill:#ff64fc"
   d="m 160.148,330.293 c -0.14,-0.141 -0.334,-0.228 -0.549,-0.228 h -4.986 c -0.001,0 -0.001,0 -0.002,0 -10e-4,0 -10e-4,0 -0.002,0 h -4.985 c -0.215,0 -0.409,0.087 -0.549,0.228 -0.141,0.141 -0.228,0.335 -0.228,0.549 v 4.985 c 0,0.05 0.02,0.094 0.029,0.142 v 4.836 c 0,0.428 0.347,0.776 0.775,0.776 0.428,0 0.775,-0.347 0.775,-0.776 v -4.212 h 3.857 l 4.765,4.765 c 0.303,0.303 0.794,0.303 1.097,0 0.303,-0.303 0.303,-0.794 0,-1.096 l -3.64,-3.64 h 3.094 c 0.428,0 0.775,-0.347 0.775,-0.775 0,-10e-4 -0.001,-0.003 -0.001,-0.004 0,-0.005 0.003,-0.01 0.003,-0.015 v -4.985 c 0,-0.215 -0.088,-0.409 -0.228,-0.55 z m -5.369,4.779 c -0.048,-0.009 -0.091,-0.029 -0.142,-0.029 h -4.241 v -3.427 h 4.212 c 0.001,0 0.001,0 0.002,0 10e-4,0 10e-4,0 0.002,0 h 4.212 v 3.456 z"
   id="path3" />
					<path
   style="fill:#ff64fc"
   d="m 120.799,330.086 h -4.986 c -0.001,0 -0.001,0 -0.002,0 -0.001,0 -0.001,0 -0.002,0 h -4.985 c -0.428,0 -0.775,0.347 -0.775,0.776 0,0.428 0.347,0.775 0.775,0.775 h 4.212 v 4.212 c 0,0.004 0.002,0.007 0.002,0.01 0,0.004 -0.002,0.007 -0.002,0.01 v 4.986 c 0,0.428 0.347,0.776 0.776,0.776 0.428,0 0.775,-0.347 0.775,-0.776 v -4.986 c 0,-0.004 -0.002,-0.007 -0.002,-0.01 0,-0.004 0.002,-0.007 0.002,-0.01 v -4.212 h 4.212 c 0.428,0 0.775,-0.347 0.775,-0.775 0,-0.428 -0.347,-0.776 -0.775,-0.776 z"
   id="path4" />
				</g>
				<g
   id="g8">
					<g
   id="g5">
						<polygon
   style="fill:#ff64fc"
   points="36.139,356.563 96.016,372.871 67.447,385.847 105.861,372.661 109.586,367.396 "
   id="polygon4" />
						<polygon
   style="fill:#ff64fc"
   points="115.26,369.435 104.72,359.077 120.836,365.967 102.98,338.767 119.109,350.909 62.209,287.342 102.682,351.385 70.935,336.915 102.068,361.104 113.025,370.202 105.861,372.661 100.659,380.014 114.323,371.279 115.943,372.624 117.358,373.799 132.474,386.35 116.028,370.189 119.467,367.991 "
   id="polygon5" />
					</g>
					<g
   id="g7">
						<polygon
   style="fill:#ff64fc"
   points="250.016,356.563 190.139,372.871 218.709,385.847 180.295,372.661 176.569,367.396 "
   id="polygon6" />
						<polygon
   style="fill:#ff64fc"
   points="170.895,369.435 181.435,359.077 165.32,365.967 183.176,338.767 167.046,350.909 223.946,287.342 183.473,351.385 215.221,336.915 184.088,361.104 173.13,370.202 180.295,372.661 185.497,380.014 171.833,371.279 170.212,372.624 168.798,373.799 153.681,386.35 170.127,370.189 166.689,367.991 "
   id="polygon7" />
					</g>
				</g>
			</g>
			<g
   id="g16">
				<g
   id="g14">
					<g
   id="g12">
						
							<circle
   transform="matrix(0.1589,-0.9873,0.9873,0.1589,-164.025,381.1939)"
   style="fill:none;stroke:#fb64f8;stroke-width:1.3106;stroke-miterlimit:10"
   cx="141.705"
   cy="286.86099"
   id="ellipse9"
   r="26.618" />
						
							<ellipse
   style="fill:none;stroke:#fb64f8;stroke-width:1.3106;stroke-miterlimit:10"
   cx="141.705"
   cy="286.86099"
   rx="18.409"
   ry="26.618"
   id="ellipse10" />
						
							<ellipse
   style="fill:none;stroke:#fb64f8;stroke-width:1.3106;stroke-miterlimit:10"
   cx="141.705"
   cy="286.86099"
   rx="10.199"
   ry="26.618"
   id="ellipse11" />
						
							<line
   style="fill:none;stroke:#fb64f8;stroke-width:1.3106;stroke-miterlimit:10"
   x1="141.705"
   y1="295.44501"
   x2="141.705"
   y2="313.479"
   id="line11" />
						
							<line
   style="fill:none;stroke:#fb64f8;stroke-width:1.3106;stroke-miterlimit:10"
   x1="141.705"
   y1="260.535"
   x2="141.705"
   y2="309.508"
   id="line12" />
					</g>
					
						<line
   style="fill:none;stroke:#fb64f8;stroke-width:1.3106;stroke-miterlimit:10"
   x1="115.087"
   y1="286.86099"
   x2="131.505"
   y2="286.86099"
   id="line13" />
					
						<line
   style="fill:none;stroke:#fb64f8;stroke-width:1.3106;stroke-miterlimit:10"
   x1="123.309"
   y1="286.86099"
   x2="168.39999"
   y2="286.86099"
   id="line14" />
				</g>
				
					<line
   style="fill:none;stroke:#fb64f8;stroke-width:1.3225;stroke-miterlimit:10"
   x1="119.076"
   y1="272.548"
   x2="164.334"
   y2="272.548"
   id="line15" />
				
					<line
   style="fill:none;stroke:#fb64f8;stroke-width:1.3225;stroke-miterlimit:10"
   x1="119.076"
   y1="301.17401"
   x2="164.334"
   y2="301.17401"
   id="line16" />
			</g>
		</g>
		<path
   style="fill:#ff64fc"
   d="m 173.039,335.3 c -0.141,-0.141 -0.335,-0.229 -0.549,-0.229 h -4.985 c -0.001,0 -0.001,0 -0.002,0 -10e-4,0 -10e-4,0 -0.002,0 h -4.212 v -3.456 h 4.212 c 0.001,0 0.001,0 0.002,0 0.001,0 0.001,0 0.002,0 h 4.985 c 0.428,0 0.775,-0.347 0.775,-0.775 0,-0.428 -0.347,-0.775 -0.775,-0.775 h -4.985 c -0.001,0 -0.001,0 -0.002,0 -10e-4,0 -10e-4,0 -0.002,0 h -4.986 c -0.215,0 -0.409,0.087 -0.549,0.228 -0.141,0.141 -0.228,0.335 -0.228,0.549 v 4.985 c 0,0.005 0.003,0.01 0.003,0.015 0,0.002 -0.001,0.003 -0.001,0.004 0,0.428 0.347,0.775 0.775,0.775 h 4.986 c 0.001,0 0.001,0 0.002,0 0.001,0 0.001,0 0.002,0 h 4.212 v 3.439 h -4.212 c -0.001,0 -0.001,10e-4 -0.002,10e-4 -10e-4,0 -10e-4,-10e-4 -0.002,-10e-4 h -4.986 c -0.428,0 -0.775,0.347 -0.775,0.776 0,0.429 0.347,0.776 0.775,0.776 h 4.986 c 0.001,0 0.001,-0.001 0.002,-0.001 0.001,0 0.001,0.001 0.002,0.001 h 4.985 c 0.215,0 0.409,-0.087 0.549,-0.229 0.141,-0.14 0.228,-0.334 0.228,-0.549 v -4.986 c 0.001,-0.213 -0.087,-0.407 -0.228,-0.548 z"
   id="path17" />
	</g>
</g>

<g
   id="TEXTS"
   transform="matrix(1.4026754,0,0,1.4026754,-50.691286,-364.11727)">	
	<text
   transform="translate(121.5747,368.1777)"
   style="font-size:29.6981px;font-family:Montserrat-ExtraBold;fill:#ff64fc"
   id="text18">44</text>
	<text
   transform="translate(132.814,327.293)"
   style="font-size:7.3028px;font-family:Roboto-Medium;fill:#fd64fa"
   id="text19">THE</text>
</g>
</svg>
