<?xml version="1.0" encoding="utf-8"?>
<!-- Generator: Adobe Illustrator 27.5.0, SVG Export Plug-In . SVG Version: 6.00 Build 0)  -->
<svg version="1.1" xmlns="http://www.w3.org/2000/svg" xmlns:xlink="http://www.w3.org/1999/xlink" x="0px" y="0px"
	 viewBox="0 0 500 500" style="enable-background:new 0 0 500 500;" xml:space="preserve">
<g id="BACKGROUND">
	<rect x="-0.027" y="-0.027" style="fill:#542ACE;" width="500.027" height="500.027"/>
</g>
<g id="OBJECTS">
	<g>
		<g>
			<g>
				<g>
					<path style="fill:#FF64FC;" d="M147.28,330.315c-0.14-0.141-0.334-0.228-0.549-0.228h-4.985c-0.001,0-0.001,0-0.002,0
						c-0.001,0-0.001,0-0.002,0h-4.985c-0.215,0-0.409,0.087-0.549,0.228c-0.141,0.14-0.228,0.335-0.228,0.549v4.986
						c0,0.004,0.002,0.007,0.002,0.01c0,0.004-0.002,0.007-0.002,0.01v4.986c0,0.428,0.347,0.776,0.775,0.776
						c0.428,0,0.776-0.347,0.776-0.776v-4.212h4.212c0.001,0,0.002-0.001,0.002-0.001c0.001,0,0.001,0.001,0.002,0.001h4.212v4.212
						c0,0.428,0.347,0.776,0.775,0.776c0.428,0,0.775-0.347,0.775-0.776v-4.986c0-0.004-0.002-0.007-0.002-0.01
						c0-0.004,0.002-0.007,0.002-0.01v-4.986C147.509,330.649,147.421,330.455,147.28,330.315z M141.746,335.093
						c-0.001,0-0.001,0.001-0.002,0.001c-0.001,0-0.001-0.001-0.002-0.001h-4.212v-3.456h4.212c0.001,0,0.002,0,0.002,0
						c0.001,0,0.001,0,0.002,0h4.212v3.456H141.746z"/>
					<path style="fill:#FF64FC;" d="M128.776,331.628c0.001,0,0.001,0,0.002,0c0.001,0,0.001,0,0.002,0h4.986
						c0.428,0,0.775-0.347,0.775-0.776c0-0.428-0.347-0.775-0.775-0.775h-4.986c-0.001,0-0.001,0-0.002,0c-0.001,0-0.001,0-0.002,0
						h-4.986c-0.215,0-0.409,0.087-0.549,0.228c-0.141,0.14-0.228,0.334-0.228,0.549v4.985c0,0.004,0.002,0.007,0.002,0.01
						c0,0.004-0.002,0.007-0.002,0.011v4.985c0,0.215,0.087,0.409,0.228,0.549c0.14,0.141,0.334,0.228,0.549,0.228h4.986
						c0.001,0,0.001,0,0.002,0c0.001,0,0.001,0,0.002,0h4.986c0.428,0,0.775-0.347,0.775-0.775c0-0.428-0.347-0.776-0.775-0.776
						h-4.986c-0.001,0-0.001,0-0.002,0c-0.001,0-0.001,0-0.002,0h-4.212v-3.439h4.212c0.001,0,0.001,0,0.002,0
						c0.001,0,0.001,0,0.002,0h4.986c0.428,0,0.775-0.347,0.775-0.776c0-0.428-0.347-0.775-0.775-0.775h-4.986
						c-0.001,0-0.001,0-0.002,0c-0.001,0-0.001,0-0.002,0h-4.212v-3.456H128.776z"/>
					<path style="fill:#FF64FC;" d="M160.148,330.293c-0.14-0.141-0.334-0.228-0.549-0.228h-4.986c-0.001,0-0.001,0-0.002,0
						c-0.001,0-0.001,0-0.002,0h-4.985c-0.215,0-0.409,0.087-0.549,0.228c-0.141,0.141-0.228,0.335-0.228,0.549v4.985
						c0,0.05,0.02,0.094,0.029,0.142v4.836c0,0.428,0.347,0.776,0.775,0.776c0.428,0,0.775-0.347,0.775-0.776v-4.212h3.857
						l4.765,4.765c0.303,0.303,0.794,0.303,1.097,0c0.303-0.303,0.303-0.794,0-1.096l-3.64-3.64h3.094
						c0.428,0,0.775-0.347,0.775-0.775c0-0.001-0.001-0.003-0.001-0.004c0-0.005,0.003-0.01,0.003-0.015v-4.985
						C160.376,330.628,160.288,330.434,160.148,330.293z M154.779,335.072c-0.048-0.009-0.091-0.029-0.142-0.029h-4.241v-3.427
						h4.212c0.001,0,0.001,0,0.002,0c0.001,0,0.001,0,0.002,0h4.212v3.456H154.779z"/>
					<path style="fill:#FF64FC;" d="M120.799,330.086h-4.986c-0.001,0-0.001,0-0.002,0c-0.001,0-0.001,0-0.002,0h-4.985
						c-0.428,0-0.775,0.347-0.775,0.776c0,0.428,0.347,0.775,0.775,0.775h4.212v4.212c0,0.004,0.002,0.007,0.002,0.01
						c0,0.004-0.002,0.007-0.002,0.01v4.986c0,0.428,0.347,0.776,0.776,0.776c0.428,0,0.775-0.347,0.775-0.776v-4.986
						c0-0.004-0.002-0.007-0.002-0.01c0-0.004,0.002-0.007,0.002-0.01v-4.212h4.212c0.428,0,0.775-0.347,0.775-0.775
						C121.574,330.434,121.227,330.086,120.799,330.086z"/>
				</g>
				<g>
					<g>
						<polygon style="fill:#FF64FC;" points="36.139,356.563 96.016,372.871 67.447,385.847 105.861,372.661 109.586,367.396 						
							"/>
						<polygon style="fill:#FF64FC;" points="116.028,370.189 119.467,367.991 115.26,369.435 104.72,359.077 120.836,365.967 
							102.98,338.767 119.109,350.909 62.209,287.342 102.682,351.385 70.935,336.915 102.068,361.104 113.025,370.202 
							105.861,372.661 100.659,380.014 114.323,371.279 115.943,372.624 117.358,373.799 132.474,386.35 						"/>
					</g>
					<g>
						<polygon style="fill:#FF64FC;" points="250.016,356.563 190.139,372.871 218.709,385.847 180.295,372.661 176.569,367.396 
													"/>
						<polygon style="fill:#FF64FC;" points="170.127,370.189 166.689,367.991 170.895,369.435 181.435,359.077 165.32,365.967 
							183.176,338.767 167.046,350.909 223.946,287.342 183.473,351.385 215.221,336.915 184.088,361.104 173.13,370.202 
							180.295,372.661 185.497,380.014 171.833,371.279 170.212,372.624 168.798,373.799 153.681,386.35 						"/>
					</g>
				</g>
			</g>
			<g>
				<g>
					<g>
						
							<ellipse transform="matrix(0.1589 -0.9873 0.9873 0.1589 -164.025 381.1939)" style="fill:none;stroke:#FB64F8;stroke-width:1.3106;stroke-miterlimit:10;" cx="141.705" cy="286.861" rx="26.618" ry="26.618"/>
						
							<ellipse style="fill:none;stroke:#FB64F8;stroke-width:1.3106;stroke-miterlimit:10;" cx="141.705" cy="286.861" rx="18.409" ry="26.618"/>
						
							<ellipse style="fill:none;stroke:#FB64F8;stroke-width:1.3106;stroke-miterlimit:10;" cx="141.705" cy="286.861" rx="10.199" ry="26.618"/>
						
							<line style="fill:none;stroke:#FB64F8;stroke-width:1.3106;stroke-miterlimit:10;" x1="141.705" y1="295.445" x2="141.705" y2="313.479"/>
						
							<line style="fill:none;stroke:#FB64F8;stroke-width:1.3106;stroke-miterlimit:10;" x1="141.705" y1="260.535" x2="141.705" y2="309.508"/>
					</g>
					
						<line style="fill:none;stroke:#FB64F8;stroke-width:1.3106;stroke-miterlimit:10;" x1="115.087" y1="286.861" x2="131.505" y2="286.861"/>
					
						<line style="fill:none;stroke:#FB64F8;stroke-width:1.3106;stroke-miterlimit:10;" x1="123.309" y1="286.861" x2="168.4" y2="286.861"/>
				</g>
				
					<line style="fill:none;stroke:#FB64F8;stroke-width:1.3225;stroke-miterlimit:10;" x1="119.076" y1="272.548" x2="164.334" y2="272.548"/>
				
					<line style="fill:none;stroke:#FB64F8;stroke-width:1.3225;stroke-miterlimit:10;" x1="119.076" y1="301.174" x2="164.334" y2="301.174"/>
			</g>
		</g>
		<path style="fill:#FF64FC;" d="M173.039,335.3c-0.141-0.141-0.335-0.229-0.549-0.229h-4.985c-0.001,0-0.001,0-0.002,0
			c-0.001,0-0.001,0-0.002,0h-4.212v-3.456h4.212c0.001,0,0.001,0,0.002,0c0.001,0,0.001,0,0.002,0h4.985
			c0.428,0,0.775-0.347,0.775-0.775c0-0.428-0.347-0.775-0.775-0.775h-4.985c-0.001,0-0.001,0-0.002,0c-0.001,0-0.001,0-0.002,0
			h-4.986c-0.215,0-0.409,0.087-0.549,0.228c-0.141,0.141-0.228,0.335-0.228,0.549v4.985c0,0.005,0.003,0.01,0.003,0.015
			c0,0.002-0.001,0.003-0.001,0.004c0,0.428,0.347,0.775,0.775,0.775h4.986c0.001,0,0.001,0,0.002,0c0.001,0,0.001,0,0.002,0h4.212
			v3.439h-4.212c-0.001,0-0.001,0.001-0.002,0.001c-0.001,0-0.001-0.001-0.002-0.001h-4.986c-0.428,0-0.775,0.347-0.775,0.776
			s0.347,0.776,0.775,0.776h4.986c0.001,0,0.001-0.001,0.002-0.001c0.001,0,0.001,0.001,0.002,0.001h4.985
			c0.215,0,0.409-0.087,0.549-0.229c0.141-0.14,0.228-0.334,0.228-0.549v-4.986C173.268,335.635,173.18,335.441,173.039,335.3z"/>
	</g>
</g>

<g id="TEXTS">	
	<text transform="matrix(1 0 0 1 121.5747 368.1777)" style="fill:#FF64FC; font-family:'Montserrat-ExtraBold'; font-size:29.6981px;">44</text>
	<text transform="matrix(1 0 0 1 132.814 327.293)" style="fill:#FD64FA; font-family:'Roboto-Medium'; font-size:7.3028px;">THE</text>
</g>
</svg>
